<svg width="180" height="110" viewBox="0 0 180 110" fill="none" xmlns="http://www.w3.org/2000/svg">
<g clip-path="url(#clip0)">
<path d="M84.4968 109.913L84.27 109.677C84.3149 109.634 88.7789 105.272 90.4802 97.1191C92.0513 89.5909 91.5206 77.1963 80.0704 60.9013C75.2862 54.0929 72.0236 47.6602 70.3733 41.7821C69.0248 36.9791 68.7393 32.5141 69.5247 28.5113C71.0774 20.5972 76.355 17.1228 76.4082 17.0887L76.5855 17.3631C76.5334 17.3966 71.3661 20.8058 69.8438 28.5842C68.0974 37.5083 71.6283 48.3183 80.3384 60.7138C85.4245 67.952 88.8103 75.0397 90.4016 81.7802C91.6763 87.18 91.8091 92.3701 90.7963 97.2067C89.0699 105.45 84.5424 109.869 84.4968 109.913Z" fill="#F2F2F2"/>
<path d="M73.5101 35.3164C80.5063 35.3164 86.1778 29.6561 86.1778 22.6736C86.1778 15.6912 80.5063 10.0309 73.5101 10.0309C66.5138 10.0309 60.8423 15.6912 60.8423 22.6736C60.8423 29.6561 66.5138 35.3164 73.5101 35.3164Z" fill="#F2F2F2"/>
<path d="M76.4968 34.4519C73.083 34.4519 69.746 33.4416 66.9076 31.5488C64.0692 29.656 61.8569 26.9657 60.5506 23.8181C59.2442 20.6704 58.9024 17.2069 59.5683 13.8654C60.2343 10.5239 61.8782 7.4545 64.292 5.0454C66.7059 2.6363 69.7813 0.995682 73.1294 0.331007C76.4775 -0.333668 79.9479 0.00745604 83.1018 1.31124C86.2557 2.61502 88.9513 4.82291 90.8479 7.6557C92.7444 10.4885 93.7567 13.8189 93.7567 17.2259C93.7515 21.7929 91.9314 26.1714 88.6957 29.4008C85.4599 32.6302 81.0728 34.4467 76.4968 34.4519ZM76.4968 0.326635C73.1478 0.326627 69.874 1.31775 67.0894 3.17467C64.3048 5.03158 62.1345 7.6709 60.8529 10.7588C59.5713 13.8468 59.236 17.2447 59.8893 20.5228C60.5427 23.801 62.1554 26.8122 64.5235 29.1756C66.8916 31.539 69.9087 33.1485 73.1933 33.8006C76.4779 34.4526 79.8826 34.118 82.9766 32.8389C86.0707 31.5598 88.7152 29.3938 90.5758 26.6147C92.4364 23.8356 93.4295 20.5683 93.4295 17.2259C93.4244 12.7455 91.6388 8.45006 88.4644 5.28193C85.29 2.1138 80.986 0.331713 76.4968 0.326635Z" fill="#F2F2F2"/>
<path d="M86.1779 61.8354C91.9796 61.8354 96.6828 57.1415 96.6828 51.3512C96.6828 45.5609 91.9796 40.8669 86.1779 40.8669C80.3761 40.8669 75.6729 45.5609 75.6729 51.3512C75.6729 57.1415 80.3761 61.8354 86.1779 61.8354Z" fill="#F2F2F2"/>
<path d="M80.8224 98.222C86.6241 98.222 91.3274 93.528 91.3274 87.7377C91.3274 81.9474 86.6241 77.2535 80.8224 77.2535C75.0206 77.2535 70.3174 81.9474 70.3174 87.7377C70.3174 93.528 75.0206 98.222 80.8224 98.222Z" fill="white"/>
<path d="M124.923 18.6177H86.4689V43.6047H124.923V18.6177Z" fill="#6C63FF"/>
<path d="M176.233 109.91H140.619C140.619 109.91 139.897 99.3429 144.169 99.2228C148.44 99.1027 147.959 103.906 153.313 97.3015C158.667 90.6971 165.164 91.0574 166.006 94.96C166.848 98.8626 164.382 101.985 168.894 101.024C173.406 100.063 179.903 102.585 176.233 109.91Z" fill="#F2F2F2"/>
<path d="M157.825 109.912L157.705 109.908C157.985 102.95 159.445 98.4802 160.62 95.9554C161.897 93.2139 163.126 92.1041 163.139 92.0932L163.219 92.1829C163.207 92.1937 161.991 93.2925 160.725 96.0154C159.556 98.5295 158.104 102.981 157.825 109.912Z" fill="white"/>
<path d="M170.715 109.927L170.599 109.893C171.495 106.945 173.109 104.264 175.298 102.091L175.379 102.18C173.206 104.338 171.604 106.999 170.715 109.927Z" fill="white"/>
<path d="M146.228 109.918L146.109 109.902C146.498 107.293 146.087 104.629 144.931 102.257C144.456 101.263 143.829 100.349 143.07 99.5485L143.154 99.4618C143.922 100.272 144.558 101.197 145.039 102.204C146.205 104.597 146.62 107.286 146.228 109.918Z" fill="white"/>
<path d="M13.9972 109.876L13.915 109.707C13.89 109.656 11.4297 104.523 12.8014 99.4624C14.1733 94.4014 18.8908 91.2064 18.9383 91.1748L19.0942 91.0707L19.1763 91.2391C19.2013 91.2903 21.6616 96.4232 20.2898 101.484C18.9181 106.545 14.2005 109.74 14.1531 109.772L13.9972 109.876ZM18.9622 91.5579C18.1362 92.1576 14.3152 95.1283 13.1174 99.5475C11.9186 103.97 13.7186 108.455 14.1292 109.388C14.9551 108.789 18.7761 105.818 19.9739 101.399C21.1727 96.9761 19.3727 92.4909 18.9622 91.5579Z" fill="#3F3D56"/>
<path d="M7.65384 101.441C9.02547 106.502 13.7236 109.636 13.7236 109.636C13.7236 109.636 16.1979 104.565 14.8263 99.505C13.4546 94.4446 8.7565 91.3106 8.7565 91.3106C8.7565 91.3106 6.28221 96.3811 7.65384 101.441Z" fill="#6C63FF"/>
<path d="M14.0712 109.805L13.8839 109.795C13.8269 109.792 8.13662 109.442 4.37234 105.785C0.608225 102.128 0.104612 96.4599 0.0999778 96.4029L0.0847168 96.2165L0.272004 96.2267C0.329054 96.2297 6.01933 96.5798 9.78353 100.237C13.5477 103.894 14.0513 109.561 14.056 109.618L14.0712 109.805ZM0.447147 96.5685C0.570593 97.5803 1.31375 102.357 4.6007 105.55C7.88765 108.744 12.692 109.357 13.7088 109.453C13.5854 108.441 12.8422 103.664 9.55517 100.471C6.26582 97.275 1.46348 96.664 0.447147 96.5685Z" fill="#3F3D56"/>
<path d="M18.1163 100.354C14.3525 104.011 13.8928 109.632 13.8928 109.632C13.8928 109.632 19.5354 109.324 23.2992 105.668C27.0629 102.011 27.5226 96.3898 27.5226 96.3898C27.5226 96.3898 21.8801 96.6973 18.1163 100.354Z" fill="#3F3D56"/>
<path d="M48.7163 68.6711C44.9525 72.3277 44.4928 77.9489 44.4928 77.9489C44.4928 77.9489 50.1354 77.6414 53.8991 73.9847C57.6629 70.3281 58.1226 64.707 58.1226 64.707C58.1226 64.707 52.4801 65.0144 48.7163 68.6711Z" fill="#3F3D56"/>
<path d="M13.8144 90.4756C15.17 90.4756 16.269 89.3789 16.269 88.0259C16.269 86.673 15.17 85.5762 13.8144 85.5762C12.4588 85.5762 11.3599 86.673 11.3599 88.0259C11.3599 89.3789 12.4588 90.4756 13.8144 90.4756Z" fill="#6C63FF"/>
<path d="M43.5932 109.749L43.3663 109.514C43.4019 109.48 46.9427 106.018 48.2912 99.5506C49.5367 93.577 49.1137 83.7415 40.0258 70.8085C33.0559 60.8894 30.2353 52.2235 31.6426 45.0511C32.8788 38.7502 37.0834 35.9822 37.1257 35.955L37.303 36.2295C37.2619 36.2561 33.1676 38.9588 31.9617 45.1241C30.577 52.204 33.3803 60.7824 40.2938 70.6209C44.3369 76.3747 47.0284 82.0093 48.2935 87.3682C49.3073 91.6627 49.4129 95.7908 48.6072 99.638C47.2337 106.197 43.6294 109.715 43.5932 109.749Z" fill="#3F3D56"/>
<path d="M41.9598 44.0946C58.2271 44.0946 71.4143 41.8367 71.4143 39.0514C71.4143 36.2662 58.2271 34.0083 41.9598 34.0083C25.6925 34.0083 12.5052 36.2662 12.5052 39.0514C12.5052 41.8367 25.6925 44.0946 41.9598 44.0946Z" fill="#6C63FF"/>
<path d="M36.4781 42.6248C16.0618 42.6248 0.0689697 39.8271 0.0689697 36.2556C0.0689697 32.6841 16.0618 29.8864 36.4781 29.8864C56.8943 29.8864 72.8871 32.6841 72.8871 36.2556C72.8871 39.8271 56.8943 42.6248 36.4781 42.6248ZM36.4781 30.213C16.9197 30.213 0.396242 32.9801 0.396242 36.2556C0.396242 39.531 16.9197 42.2982 36.4781 42.2982C56.0364 42.2982 72.5599 39.531 72.5599 36.2556C72.5599 32.9801 56.0364 30.213 36.4781 30.213Z" fill="#3F3D56"/>
<path d="M44.7516 11.5045C44.7516 11.5045 40.3869 10.2774 39.0959 16.2288C37.8049 22.1801 38.7885 25.1865 38.7885 25.1865L48.5324 24.0515C48.5324 24.0515 51.2988 13.3144 44.7516 11.5045Z" fill="#2F2E41"/>
<path d="M38.2214 37.2812C38.2214 37.2812 31.819 37.9176 32.9593 40.4973C34.0997 43.077 34.0997 43.3046 34.0997 43.3046L39.7254 53.3199L41.5499 51.423C41.5499 51.423 39.4973 46.9465 39.4973 45.5049C39.4973 44.0633 37.3687 41.5595 37.3687 41.5595L41.0938 41.256L38.2214 37.2812Z" fill="#A0616A"/>
<path d="M55.7663 40.3455L57.895 44.9738C57.895 44.9738 59.4914 46.5671 61.24 52.9405C62.9885 59.3139 63.3686 59.0862 63.3686 59.0862L60.7078 59.6173C60.7078 59.6173 57.7429 52.7129 56.7546 52.1818C55.7663 51.6507 54.5499 46.7948 54.5499 46.7948L51.0529 42.3941L52.1172 40.042L55.7663 40.3455Z" fill="#A0616A"/>
<path d="M53.1815 35.0344L56.4505 41.1043C56.4505 41.1043 52.3452 39.2074 51.737 43.3805L48.0119 40.4973C48.0119 40.4973 42.8423 42.1665 39.7254 41.5595C39.7254 41.5595 40.6376 38.6763 37.3687 37.3865L44.7429 36.476L44.4388 34.8827L45.199 33.3652L53.1815 35.0344Z" fill="#2F2E41"/>
<path d="M40.1814 51.9541C40.1814 51.9541 38.1288 51.6506 38.661 53.4716L39.7253 57.1135C39.7253 57.1135 38.3569 60.8313 40.4855 59.9967C42.6142 59.1621 43.9826 54.0027 43.9826 54.0027C43.9826 54.0027 44.8949 50.0573 43.9826 50.0573C43.0703 50.0573 40.1814 49.4503 40.4855 50.0573C40.7896 50.6643 40.1814 51.9541 40.1814 51.9541Z" fill="#2F2E41"/>
<path d="M63.1405 58.024C63.1405 58.024 60.4797 57.3411 59.8715 58.4034C59.2633 59.4656 59.4153 62.9557 59.4153 63.0316C59.4153 63.1075 60.3276 63.8662 60.6317 63.8662C60.9358 63.8662 62.8364 67.2805 65.4212 66.0665C68.006 64.8526 63.1405 58.024 63.1405 58.024Z" fill="#2F2E41"/>
<path d="M43.9826 20.7702C45.6201 20.7702 46.9475 19.4454 46.9475 17.8112C46.9475 16.1769 45.6201 14.8521 43.9826 14.8521C42.3451 14.8521 41.0177 16.1769 41.0177 17.8112C41.0177 19.4454 42.3451 20.7702 43.9826 20.7702Z" fill="#A0616A"/>
<path d="M46.4154 18.4182C46.4154 18.4182 47.0236 21.6048 47.5558 22.0601C48.0879 22.5153 43.5265 23.1982 43.5265 23.1982C43.5265 23.1982 44.2107 20.9978 43.3745 19.8597C42.5382 18.7216 46.4154 18.4182 46.4154 18.4182Z" fill="#A0616A"/>
<path d="M54.3978 36.476C53.8801 36.476 52.5619 36.262 51.084 35.9866C49.8053 35.7484 48.4057 35.4654 47.3018 35.2362C46.1197 34.9904 45.275 34.8068 45.275 34.8068C45.275 34.8068 44.9709 36.7036 43.9826 36.476C43.1312 36.2802 40.5867 27.4099 39.8987 24.9584C39.8484 24.7794 39.8581 24.5889 39.9263 24.4159C39.9945 24.243 40.1175 24.0969 40.2765 24.0002L43.7713 21.8704L44.6668 22.2118C44.6668 22.2118 46.1797 21.0449 47.0578 21.0214C47.9358 20.9978 49.4563 20.7702 49.4563 20.7702C49.4563 20.7702 51.2049 20.922 51.5089 22.2118C51.813 23.5017 51.9651 31.5442 53.1054 32.9858C54.2458 34.4274 55.8423 36.476 54.3978 36.476Z" fill="#D0CDE1"/>
<path d="M43.7546 40.7249C43.7546 40.7249 43.7546 43.6839 45.7312 43.2287C47.7078 42.7735 45.8833 40.042 45.8833 40.042L43.7546 40.7249Z" fill="#A0616A"/>
<path d="M49.2283 41.0284C49.2283 41.0284 48.5441 44.5185 47.0996 43.9874C45.6552 43.4563 47.0996 40.3455 47.0996 40.3455L49.2283 41.0284Z" fill="#A0616A"/>
<path opacity="0.15" d="M52.4213 32.7582C52.4213 32.7582 51.677 34.5306 51.084 35.9866C49.8053 35.7484 48.4057 35.4654 47.3019 35.2362C47.3812 35.0267 47.4925 34.8306 47.6318 34.655C48.164 34.048 47.8599 33.8963 47.8599 33.8963C47.4038 32.9858 47.7839 31.7718 47.7839 31.7718C46.8716 29.3439 48.24 26.309 48.24 26.309L52.4213 32.7582Z" fill="black"/>
<path d="M48.468 26.309C48.468 26.309 47.0996 29.3439 48.0118 31.7718C48.0118 31.7718 47.6317 32.9858 48.0879 33.8963C48.0879 33.8963 48.3919 34.048 47.8598 34.655C47.3276 35.262 46.8715 37.3865 47.2516 37.8417C47.6317 38.2969 46.7194 39.1316 46.9475 39.5868C47.1756 40.042 46.5674 40.649 46.5674 40.649C46.5674 40.649 48.8481 41.1043 49.2282 41.7871C49.2282 41.7871 49.6843 41.256 49.4563 40.649C49.2282 40.042 49.3802 39.8144 49.6083 39.435C49.8364 39.0557 50.5206 38.2211 50.5966 37.8417C50.6726 37.4623 52.6492 32.7582 52.6492 32.7582L51.7223 24.1856L48.468 26.309Z" fill="#D0CDE1"/>
<path d="M40.5616 24.1845L40.4196 24.2103C40.2216 24.2461 40.0426 24.3506 39.9141 24.5052C39.7857 24.6599 39.7161 24.8548 39.7176 25.0557C39.723 25.8175 39.766 27.1694 39.9534 29.0404C40.2575 32.0753 41.3219 36.6277 41.5499 37.083C41.9121 37.8885 42.3182 38.6737 42.7663 39.435C43.4505 40.5731 43.6026 40.1938 43.4505 40.7249C43.4042 40.8712 43.4011 41.0276 43.4416 41.1756C43.482 41.3236 43.5643 41.4569 43.6786 41.5595C43.6786 41.5595 45.047 40.042 46.4154 40.8766C46.5132 40.6621 46.565 40.4295 46.5675 40.1938C46.5675 39.8144 46.7955 39.435 46.4154 39.2074C46.0353 38.9798 46.6435 37.9934 46.0353 37.4623C45.4271 36.9312 45.3511 37.0071 45.4271 36.476C45.4626 36.1149 45.4104 35.7505 45.2751 35.4137L40.5616 24.1845Z" fill="#D0CDE1"/>
<path d="M45.0911 14.0101C45.0911 14.0101 43.8615 17.2618 40.8492 18.6116L40.3574 15.728L45.0911 14.0101Z" fill="#2F2E41"/>
<path d="M46.8715 17.4697C47.1024 17.4697 47.2896 17.113 47.2896 16.6731C47.2896 16.2331 47.1024 15.8764 46.8715 15.8764C46.6406 15.8764 46.4534 16.2331 46.4534 16.6731C46.4534 17.113 46.6406 17.4697 46.8715 17.4697Z" fill="#A0616A"/>
<path d="M132.842 58.6067C135.775 58.6067 138.153 56.2337 138.153 53.3065C138.153 50.3793 135.775 48.0063 132.842 48.0063C129.909 48.0063 127.531 50.3793 127.531 53.3065C127.531 56.2337 129.909 58.6067 132.842 58.6067Z" fill="#2F2E41"/>
<path d="M132.133 48.1057C133.107 48.1057 133.897 47.3175 133.897 46.3451C133.897 45.3728 133.107 44.5846 132.133 44.5846C131.159 44.5846 130.369 45.3728 130.369 46.3451C130.369 47.3175 131.159 48.1057 132.133 48.1057Z" fill="#2F2E41"/>
<path d="M130.148 47.4355C129.876 47.0939 129.741 46.6637 129.769 46.2283C129.796 45.7929 129.985 45.3833 130.298 45.0789C130.249 45.1106 130.201 45.145 130.154 45.182C129.973 45.3258 129.821 45.5039 129.709 45.706C129.597 45.9082 129.525 46.1304 129.499 46.3601C129.472 46.5898 129.492 46.8225 129.555 47.0448C129.619 47.267 129.726 47.4746 129.87 47.6557C130.014 47.8367 130.193 47.9876 130.395 48.0999C130.598 48.2121 130.82 48.2834 131.05 48.3097C131.281 48.336 131.514 48.3169 131.736 48.2533C131.959 48.1897 132.167 48.083 132.349 47.9391C132.395 47.902 132.44 47.863 132.482 47.8221C132.114 48.0577 131.671 48.1486 131.24 48.0772C130.809 48.0058 130.42 47.7771 130.148 47.4355Z" fill="#2F2E41"/>
<path d="M124.144 72.4737L121.07 75.0694C121.07 75.0694 116.459 76.4853 118.705 78.0191C120.952 79.553 122.252 76.1313 122.252 76.1313L126.035 73.7715L124.144 72.4737Z" fill="#FFB9B9"/>
<path d="M130.764 61.1467L130.409 60.9108C130.409 60.9108 128.991 60.9108 128.754 62.3266C128.518 63.7425 127.808 66.6922 127.808 66.6922C127.808 66.6922 125.444 68.1081 125.68 70.7038L123.198 72.8276C123.198 72.8276 126.153 73.7716 125.562 74.5975L129.936 70.5859L130.055 62.9166L130.764 61.1467Z" fill="#2F2E41"/>
<path d="M132.183 58.433C133.88 58.433 135.256 57.0595 135.256 55.3653C135.256 53.671 133.88 52.2976 132.183 52.2976C130.485 52.2976 129.109 53.671 129.109 55.3653C129.109 57.0595 130.485 58.433 132.183 58.433Z" fill="#FFB9B9"/>
<path d="M131.237 57.4891C131.237 57.4891 133.128 59.6129 131.946 60.7928C130.764 61.9727 130.409 67.7541 130.409 67.7541L135.611 59.8489C135.611 59.8489 134.192 57.0171 134.311 56.0732L131.237 57.4891Z" fill="#FFB9B9"/>
<path d="M130.882 65.7483C130.882 65.7483 133.72 59.5287 135.256 59.0988L139.276 60.0848C139.276 60.0848 136.084 71.0578 136.439 72.1197C136.793 73.1816 138.803 74.7155 138.094 84.0366C138.094 84.0366 147.197 100.673 144.951 103.505C142.704 106.337 134.311 108.46 134.192 107.634C134.074 106.808 130.291 94.0656 130.882 90.172C130.882 90.172 130.882 107.044 130.173 107.398C129.464 107.752 118.114 110.348 118.469 108.342C118.824 106.337 124.498 84.2726 124.498 84.2726L128.872 70.5859L128.991 68.58C128.991 68.58 127.099 67.2822 128.518 64.3324C129.936 61.3827 130.409 60.9108 130.409 60.9108L132.113 60.5916C132.113 60.5916 130.528 64.9224 130.882 65.7483Z" fill="#2F2E41"/>
<path d="M137.266 74.5975L135.848 77.6652C135.848 77.6652 132.183 81.5588 134.784 81.6768C137.384 81.7948 137.621 78.1371 137.621 78.1371L139.512 74.5975H137.266Z" fill="#FFB9B9"/>
<path d="M137.739 60.2028H139.276C139.276 60.2028 139.749 59.4949 140.222 62.4446C140.695 65.3943 140.458 69.8779 140.458 69.8779L139.749 75.7774C139.749 75.7774 137.266 74.8334 136.675 75.0694C136.084 75.3054 136.675 74.9514 136.675 74.9514L137.739 70.9398L136.439 65.1583L137.739 60.2028Z" fill="#2F2E41"/>
<path d="M131.871 50.8419C129.864 51.3863 128.494 52.7753 128.812 53.9441C128.955 54.4671 129.412 54.8564 130.053 55.0792L130.615 54.3834L130.64 55.2278C130.729 55.2429 130.819 55.2564 130.912 55.2663L131.626 53.7654L132.034 55.2609C132.368 55.2253 132.699 55.163 133.024 55.0747C135.032 54.5303 136.401 53.1414 136.083 51.9725C135.765 50.8037 133.879 50.2975 131.871 50.8419Z" fill="#2F2E41"/>
<path d="M135.315 55.3063C135.511 55.3063 135.67 55.0422 135.67 54.7163C135.67 54.3905 135.511 54.1264 135.315 54.1264C135.12 54.1264 134.961 54.3905 134.961 54.7163C134.961 55.0422 135.12 55.3063 135.315 55.3063Z" fill="#FFB9B9"/>
<path d="M123.287 109.91C124.823 109.91 126.069 109.362 126.069 108.685C126.069 108.009 124.823 107.46 123.287 107.46C121.751 107.46 120.505 108.009 120.505 108.685C120.505 109.362 121.751 109.91 123.287 109.91Z" fill="#2F2E41"/>
<path d="M138.387 109.327C140.303 108.573 141.588 107.281 141.257 106.442C140.926 105.603 139.103 105.534 137.187 106.288C135.27 107.042 133.985 108.333 134.317 109.172C134.648 110.012 136.47 110.081 138.387 109.327Z" fill="#2F2E41"/>
<path d="M119.601 76.4744C119.552 76.4624 114.699 75.2296 112.853 70.3329C110.748 64.7518 113.222 56.8814 120.208 46.9405C128.74 34.7986 129.203 30.7189 128.089 29.4345C126.681 27.8098 122.26 30.0097 122.216 30.0321L122.068 29.7406C122.259 29.6443 126.761 27.4042 128.337 29.2205C130.068 31.2165 127.423 37.2414 120.476 47.128C116.69 52.5149 114.216 57.3502 113.122 61.4995C112.235 64.8635 112.247 67.795 113.157 70.213C114.94 74.9484 119.632 76.1455 119.679 76.157L119.601 76.4744Z" fill="#3F3D56"/>
<path d="M122.305 39.6851H81.2325V12.9017H122.305V39.6851ZM81.5598 39.3585H121.978V13.2284H81.5598V39.3585Z" fill="#3F3D56"/>
<path d="M98.3379 29.8458C99.2898 29.8458 100.062 29.0757 100.062 28.1257C100.062 27.1757 99.2898 26.4055 98.3379 26.4055C97.386 26.4055 96.6144 27.1757 96.6144 28.1257C96.6144 29.0757 97.386 29.8458 98.3379 29.8458Z" fill="#3F3D56"/>
<path d="M113.054 29.8458C114.006 29.8458 114.778 29.0757 114.778 28.1257C114.778 27.1757 114.006 26.4055 113.054 26.4055C112.103 26.4055 111.331 27.1757 111.331 28.1257C111.331 29.0757 112.103 29.8458 113.054 29.8458Z" fill="#3F3D56"/>
<path d="M113.054 35.1386C113.054 35.6502 109.73 37.1234 105.63 37.1234C101.529 37.1234 98.2053 35.6502 98.2053 35.1386C98.2053 34.6271 101.529 35.2709 105.63 35.2709C109.73 35.2709 113.054 34.6271 113.054 35.1386Z" fill="#3F3D56"/>
<path d="M180 109.673H0V110H180V109.673Z" fill="#3F3D56"/>
</g>
<defs>
<clipPath id="clip0">
<rect width="180" height="110" fill="white"/>
</clipPath>
</defs>
</svg>
