<svg width="128" height="41" viewBox="0 0 128 41" fill="none" xmlns="http://www.w3.org/2000/svg">
<path d="M22.84 13.4L11 40.2H4.88L8.64 31.92L0.56 13.4H6.84L11.8 25.88L16.92 13.4H22.84ZM24.7872 4.8H30.8272V33H24.7872V4.8Z" fill="black"/>
<path d="M49.5913 17.84L46.1913 18.2C44.5113 18.36 43.3246 18.84 42.6313 19.64C41.9379 20.4133 41.5913 21.4533 41.5913 22.76V33H35.5513V13.36H41.3513V16.68C42.3379 14.4133 44.3779 13.1733 47.4713 12.96L49.2313 12.84L49.5913 17.84ZM68.9953 24.32H56.1953C56.382 25.8933 56.8886 27.04 57.7153 27.76C58.5686 28.4533 59.7686 28.8 61.3153 28.8C62.3286 28.8 63.3286 28.64 64.3153 28.32C65.3286 27.9733 66.2486 27.4933 67.0753 26.88L68.6753 30.92C67.7153 31.6667 66.542 32.2533 65.1553 32.68C63.7953 33.1067 62.422 33.32 61.0353 33.32C57.7286 33.32 55.1153 32.4133 53.1953 30.6C51.302 28.76 50.3553 26.2667 50.3553 23.12C50.3553 21.12 50.7686 19.3467 51.5953 17.8C52.422 16.2533 53.5686 15.0533 55.0353 14.2C56.502 13.32 58.1686 12.88 60.0353 12.88C62.782 12.88 64.9553 13.7733 66.5553 15.56C68.182 17.3467 68.9953 19.7733 68.9953 22.84V24.32ZM60.1953 17.04C59.0486 17.04 58.1286 17.4133 57.4353 18.16C56.7686 18.88 56.3553 19.9333 56.1953 21.32H63.9153C63.8353 19.9067 63.4753 18.84 62.8353 18.12C62.222 17.4 61.342 17.04 60.1953 17.04ZM81.4634 12.88C84.3968 12.88 86.5568 13.5733 87.9434 14.96C89.3568 16.3467 90.0634 18.4933 90.0634 21.4V33H84.3434V30.08C83.9434 31.0933 83.2768 31.8933 82.3434 32.48C81.4101 33.04 80.3168 33.32 79.0634 33.32C77.7301 33.32 76.5168 33.0533 75.4234 32.52C74.3568 31.9867 73.5034 31.24 72.8634 30.28C72.2501 29.32 71.9434 28.2533 71.9434 27.08C71.9434 25.64 72.3034 24.5067 73.0234 23.68C73.7701 22.8533 74.9568 22.2533 76.5834 21.88C78.2101 21.5067 80.4368 21.32 83.2634 21.32H84.3034V20.6C84.3034 19.4267 84.0501 18.6 83.5434 18.12C83.0368 17.64 82.1568 17.4 80.9034 17.4C79.9434 17.4 78.8768 17.5733 77.7034 17.92C76.5301 18.2667 75.4101 18.7467 74.3434 19.36L72.7434 15.32C73.8634 14.6267 75.2368 14.0533 76.8634 13.6C78.5168 13.12 80.0501 12.88 81.4634 12.88ZM80.3834 29.16C81.5568 29.16 82.5034 28.7733 83.2234 28C83.9434 27.2 84.3034 26.1733 84.3034 24.92V24.24H83.6234C81.4634 24.24 79.9434 24.4133 79.0634 24.76C78.2101 25.1067 77.7834 25.7333 77.7834 26.64C77.7834 27.36 78.0234 27.96 78.5034 28.44C79.0101 28.92 79.6368 29.16 80.3834 29.16ZM94.6794 4.8H100.719V33H94.6794V4.8Z" fill="#FF4E4E"/>
<path d="M111.265 14.125V16H103.99V14.275L107.515 10.54C108.255 9.76 108.625 9.04 108.625 8.38C108.625 7.54 108.145 7.12 107.185 7.12C106.745 7.12 106.285 7.21 105.805 7.39C105.325 7.56 104.855 7.81 104.395 8.14L103.66 6.475C104.08 6.115 104.62 5.83 105.28 5.62C105.94 5.4 106.615 5.29 107.305 5.29C108.405 5.29 109.28 5.555 109.93 6.085C110.59 6.615 110.92 7.325 110.92 8.215C110.92 8.825 110.79 9.39 110.53 9.91C110.28 10.43 109.855 11.01 109.255 11.65L106.9 14.125H111.265ZM118.301 10.555C118.921 10.735 119.396 11.05 119.726 11.5C120.066 11.94 120.236 12.48 120.236 13.12C120.236 14.05 119.881 14.785 119.171 15.325C118.461 15.855 117.501 16.12 116.291 16.12C115.561 16.12 114.861 16.015 114.191 15.805C113.521 15.595 112.976 15.305 112.556 14.935L113.291 13.27C114.251 13.95 115.216 14.29 116.186 14.29C116.826 14.29 117.291 14.18 117.581 13.96C117.871 13.73 118.016 13.375 118.016 12.895C118.016 12.425 117.871 12.085 117.581 11.875C117.291 11.665 116.826 11.56 116.186 11.56H114.671V9.745H115.931C116.541 9.745 116.991 9.64 117.281 9.43C117.581 9.22 117.731 8.895 117.731 8.455C117.731 8.025 117.601 7.695 117.341 7.465C117.081 7.235 116.706 7.12 116.216 7.12C115.776 7.12 115.316 7.21 114.836 7.39C114.356 7.56 113.891 7.81 113.441 8.14L112.706 6.475C113.126 6.115 113.666 5.83 114.326 5.62C114.996 5.4 115.681 5.29 116.381 5.29C117.101 5.29 117.731 5.41 118.271 5.65C118.811 5.88 119.226 6.21 119.516 6.64C119.816 7.07 119.966 7.57 119.966 8.14C119.966 8.71 119.816 9.21 119.516 9.64C119.226 10.06 118.821 10.365 118.301 10.555Z" fill="black"/>
</svg>
